# Blender v3.0.1 OBJ File: ''
# www.blender.org
o Torus.001
v 1.500000 0.000000 0.000000
v 1.250000 0.433013 0.000000
v 0.750000 0.433013 0.000000
v 0.500000 0.000000 0.000000
v 0.750000 -0.433013 0.000000
v 1.250000 -0.433013 0.000000
v 1.299038 0.000000 -0.750000
v 1.082532 0.433013 -0.625000
v 0.649519 0.433013 -0.375000
v 0.433013 0.000000 -0.250000
v 0.649519 -0.433013 -0.375000
v 1.082532 -0.433013 -0.625000
v 0.750000 0.000000 -1.299038
v 0.625000 0.433013 -1.082532
v 0.375000 0.433013 -0.649519
v 0.250000 0.000000 -0.433013
v 0.375000 -0.433013 -0.649519
v 0.625000 -0.433013 -1.082532
v 0.000000 0.000000 -1.500000
v 0.000000 0.433013 -1.250000
v 0.000000 0.433013 -0.750000
v 0.000000 0.000000 -0.500000
v 0.000000 -0.433013 -0.750000
v 0.000000 -0.433013 -1.250000
v -0.750000 0.000000 -1.299038
v -0.625000 0.433013 -1.082532
v -0.375000 0.433013 -0.649519
v -0.250000 0.000000 -0.433013
v -0.375000 -0.433013 -0.649519
v -0.625000 -0.433013 -1.082532
v -1.299038 0.000000 -0.750000
v -1.082532 0.433013 -0.625000
v -0.649519 0.433013 -0.375000
v -0.433013 0.000000 -0.250000
v -0.649519 -0.433013 -0.375000
v -1.082532 -0.433013 -0.625000
v -1.500000 0.000000 -0.000000
v -1.250000 0.433013 -0.000000
v -0.750000 0.433013 -0.000000
v -0.500000 0.000000 -0.000000
v -0.750000 -0.433013 -0.000000
v -1.250000 -0.433013 -0.000000
v -1.299038 0.000000 0.750000
v -1.082532 0.433013 0.625000
v -0.649519 0.433013 0.375000
v -0.433013 0.000000 0.250000
v -0.649519 -0.433013 0.375000
v -1.082532 -0.433013 0.625000
v -0.750000 0.000000 1.299038
v -0.625000 0.433013 1.082532
v -0.375000 0.433013 0.649519
v -0.250000 0.000000 0.433013
v -0.375000 -0.433013 0.649519
v -0.625000 -0.433013 1.082532
v 0.000000 0.000000 1.500000
v 0.000000 0.433013 1.250000
v 0.000000 0.433013 0.750000
v 0.000000 0.000000 0.500000
v 0.000000 -0.433013 0.750000
v 0.000000 -0.433013 1.250000
v 0.750000 0.000000 1.299038
v 0.625000 0.433013 1.082532
v 0.375000 0.433013 0.649519
v 0.250000 0.000000 0.433013
v 0.375000 -0.433013 0.649519
v 0.625000 -0.433013 1.082532
v 1.299038 0.000000 0.750000
v 1.082532 0.433013 0.625000
v 0.649519 0.433013 0.375000
v 0.433013 0.000000 0.250000
v 0.649519 -0.433013 0.375000
v 1.082532 -0.433013 0.625000
vt 0.500000 0.500000
vt 0.583333 0.500000
vt 0.583333 0.666667
vt 0.500000 0.666667
vt 0.583333 0.833333
vt 0.500000 0.833333
vt 0.583333 1.000000
vt 0.500000 1.000000
vt 0.500000 -0.000000
vt 0.583333 -0.000000
vt 0.583333 0.166667
vt 0.500000 0.166667
vt 0.583333 0.333333
vt 0.500000 0.333333
vt 0.666667 0.500000
vt 0.666667 0.666667
vt 0.666667 0.833333
vt 0.666667 1.000000
vt 0.666667 -0.000000
vt 0.666667 0.166667
vt 0.666667 0.333333
vt 0.750000 0.500000
vt 0.750000 0.666667
vt 0.750000 0.833333
vt 0.750000 1.000000
vt 0.750000 -0.000000
vt 0.750000 0.166667
vt 0.750000 0.333333
vt 0.833333 0.500000
vt 0.833333 0.666667
vt 0.833333 0.833333
vt 0.833333 1.000000
vt 0.833333 -0.000000
vt 0.833333 0.166667
vt 0.833333 0.333333
vt 0.916667 0.500000
vt 0.916667 0.666667
vt 0.916667 0.833333
vt 0.916667 1.000000
vt 0.916667 -0.000000
vt 0.916667 0.166667
vt 0.916667 0.333333
vt 1.000000 0.500000
vt 1.000000 0.666667
vt 1.000000 0.833333
vt 1.000000 1.000000
vt 1.000000 -0.000000
vt 1.000000 0.166667
vt 1.000000 0.333333
vt 0.000000 0.500000
vt 0.083333 0.500000
vt 0.083333 0.666667
vt 0.000000 0.666667
vt 0.083333 0.833333
vt 0.000000 0.833333
vt 0.083333 1.000000
vt 0.000000 1.000000
vt 0.000000 -0.000000
vt 0.083333 -0.000000
vt 0.083333 0.166667
vt 0.000000 0.166667
vt 0.083333 0.333333
vt 0.000000 0.333333
vt 0.166667 0.500000
vt 0.166667 0.666667
vt 0.166667 0.833333
vt 0.166667 1.000000
vt 0.166667 -0.000000
vt 0.166667 0.166667
vt 0.166667 0.333333
vt 0.250000 0.500000
vt 0.250000 0.666667
vt 0.250000 0.833333
vt 0.250000 1.000000
vt 0.250000 -0.000000
vt 0.250000 0.166667
vt 0.250000 0.333333
vt 0.333333 0.500000
vt 0.333333 0.666667
vt 0.333333 0.833333
vt 0.333333 1.000000
vt 0.333333 -0.000000
vt 0.333333 0.166667
vt 0.333333 0.333333
vt 0.416667 0.500000
vt 0.416667 0.666667
vt 0.416667 0.833333
vt 0.416667 1.000000
vt 0.416667 -0.000000
vt 0.416667 0.166667
vt 0.416667 0.333333
vn 0.8436 0.4871 -0.2260
vn 0.0000 1.0000 -0.0000
vn -0.8436 0.4871 0.2260
vn -0.8436 -0.4871 0.2260
vn 0.0000 -1.0000 0.0000
vn 0.8436 -0.4871 -0.2260
vn 0.6176 0.4871 -0.6176
vn -0.6176 0.4871 0.6176
vn -0.6176 -0.4871 0.6176
vn 0.6176 -0.4871 -0.6176
vn 0.2260 0.4871 -0.8436
vn -0.2260 0.4871 0.8436
vn -0.2260 -0.4871 0.8436
vn 0.2260 -0.4871 -0.8436
vn -0.2260 0.4871 -0.8436
vn 0.2260 0.4871 0.8436
vn 0.2260 -0.4871 0.8436
vn -0.2260 -0.4871 -0.8436
vn -0.6176 0.4871 -0.6176
vn 0.6176 0.4871 0.6176
vn 0.6176 -0.4871 0.6176
vn -0.6176 -0.4871 -0.6176
vn -0.8436 0.4871 -0.2260
vn 0.8436 0.4871 0.2260
vn 0.8436 -0.4871 0.2260
vn -0.8436 -0.4871 -0.2260
s off
f 1/1/1 7/2/1 8/3/1 2/4/1
f 2/4/2 8/3/2 9/5/2 3/6/2
f 3/6/3 9/5/3 10/7/3 4/8/3
f 4/9/4 10/10/4 11/11/4 5/12/4
f 5/12/5 11/11/5 12/13/5 6/14/5
f 6/14/6 12/13/6 7/2/6 1/1/6
f 7/2/7 13/15/7 14/16/7 8/3/7
f 8/3/2 14/16/2 15/17/2 9/5/2
f 9/5/8 15/17/8 16/18/8 10/7/8
f 10/10/9 16/19/9 17/20/9 11/11/9
f 11/11/5 17/20/5 18/21/5 12/13/5
f 12/13/10 18/21/10 13/15/10 7/2/10
f 13/15/11 19/22/11 20/23/11 14/16/11
f 14/16/2 20/23/2 21/24/2 15/17/2
f 15/17/12 21/24/12 22/25/12 16/18/12
f 16/19/13 22/26/13 23/27/13 17/20/13
f 17/20/5 23/27/5 24/28/5 18/21/5
f 18/21/14 24/28/14 19/22/14 13/15/14
f 19/22/15 25/29/15 26/30/15 20/23/15
f 20/23/2 26/30/2 27/31/2 21/24/2
f 21/24/16 27/31/16 28/32/16 22/25/16
f 22/26/17 28/33/17 29/34/17 23/27/17
f 23/27/5 29/34/5 30/35/5 24/28/5
f 24/28/18 30/35/18 25/29/18 19/22/18
f 25/29/19 31/36/19 32/37/19 26/30/19
f 26/30/2 32/37/2 33/38/2 27/31/2
f 27/31/20 33/38/20 34/39/20 28/32/20
f 28/33/21 34/40/21 35/41/21 29/34/21
f 29/34/5 35/41/5 36/42/5 30/35/5
f 30/35/22 36/42/22 31/36/22 25/29/22
f 31/36/23 37/43/23 38/44/23 32/37/23
f 32/37/2 38/44/2 39/45/2 33/38/2
f 33/38/24 39/45/24 40/46/24 34/39/24
f 34/40/25 40/47/25 41/48/25 35/41/25
f 35/41/5 41/48/5 42/49/5 36/42/5
f 36/42/26 42/49/26 37/43/26 31/36/26
f 37/50/3 43/51/3 44/52/3 38/53/3
f 38/53/2 44/52/2 45/54/2 39/55/2
f 39/55/1 45/54/1 46/56/1 40/57/1
f 40/58/6 46/59/6 47/60/6 41/61/6
f 41/61/5 47/60/5 48/62/5 42/63/5
f 42/63/4 48/62/4 43/51/4 37/50/4
f 43/51/8 49/64/8 50/65/8 44/52/8
f 44/52/2 50/65/2 51/66/2 45/54/2
f 45/54/7 51/66/7 52/67/7 46/56/7
f 46/59/10 52/68/10 53/69/10 47/60/10
f 47/60/5 53/69/5 54/70/5 48/62/5
f 48/62/9 54/70/9 49/64/9 43/51/9
f 49/64/12 55/71/12 56/72/12 50/65/12
f 50/65/2 56/72/2 57/73/2 51/66/2
f 51/66/11 57/73/11 58/74/11 52/67/11
f 52/68/14 58/75/14 59/76/14 53/69/14
f 53/69/5 59/76/5 60/77/5 54/70/5
f 54/70/13 60/77/13 55/71/13 49/64/13
f 55/71/16 61/78/16 62/79/16 56/72/16
f 56/72/2 62/79/2 63/80/2 57/73/2
f 57/73/15 63/80/15 64/81/15 58/74/15
f 58/75/18 64/82/18 65/83/18 59/76/18
f 59/76/5 65/83/5 66/84/5 60/77/5
f 60/77/17 66/84/17 61/78/17 55/71/17
f 61/78/20 67/85/20 68/86/20 62/79/20
f 62/79/2 68/86/2 69/87/2 63/80/2
f 63/80/19 69/87/19 70/88/19 64/81/19
f 64/82/22 70/89/22 71/90/22 65/83/22
f 65/83/5 71/90/5 72/91/5 66/84/5
f 66/84/21 72/91/21 67/85/21 61/78/21
f 67/85/24 1/1/24 2/4/24 68/86/24
f 68/86/2 2/4/2 3/6/2 69/87/2
f 69/87/23 3/6/23 4/8/23 70/88/23
f 70/89/26 4/9/26 5/12/26 71/90/26
f 71/90/5 5/12/5 6/14/5 72/91/5
f 72/91/25 6/14/25 1/1/25 67/85/25
